<?xml version="1.0" encoding="UTF-8"?>
<svg width="2537px" height="166px" viewBox="0 0 2537 166" version="1.1" xmlns="http://www.w3.org/2000/svg" xmlns:xlink="http://www.w3.org/1999/xlink">
    <!-- Generator: Sketch 43.1 (39012) - http://www.bohemiancoding.com/sketch -->
    <title>Group</title>
    <desc>Created with Sketch.</desc>
    <defs></defs>
    <g id="Page-1" stroke="none" stroke-width="1" fill="none" fill-rule="evenodd">
        <g id="Artboard" transform="translate(0.000000, -420.000000)" fill="#474B9F">
            <g id="Group" transform="translate(-67.000000, 419.000000)">
                <path d="M839.366062,3.96953629 C987.566572,1.14212265 1139,98.0561115 1307,98.0561115 C1475,98.0561115 1653.69515,-1.62871932 1780.69515,1.14212265 C1907.69515,3.91296461 2043.81571,98.0561115 2180,98.0561115 C2180,98.0561115 2180,166.056112 2180,166.056112 L945,166.056112 C945,166.056112 691.165552,6.79694993 839.366062,3.96953629 Z" id="Path"></path>
                <path d="M1785.66103,2.6245683 C1919.17279,2.6245683 2045,98.0561115 2213,98.0561115 C2381,98.0561115 2590,-2.71473044 2717,0.0561115234 C2844,2.82695349 3026,86.0561115 3086,86.0561115 C3086,86.0561115 3086,166.056112 3086,166.056112 L1851,166.056112 C1851,166.056112 1727.28046,2.6245683 1785.66103,2.6245683 Z" id="Path"></path>
                <path d="M0.6534016,2.6245683 C137.315748,2.6245683 259.992371,98.0561115 427.992371,98.0561115 C595.992371,98.0561115 652.833671,2.6245683 839.338927,2.6245683 C1025.84418,2.6245683 1078.1786,98.0561115 1300.99237,98.0561115 C1300.99237,98.0561115 1300.99237,166.056112 1300.99237,166.056112 L0.6534016,166.056112 C0.6534016,166.056112 0.6534016,2.6245683 0.6534016,2.6245683 Z" id="Path"></path>
            </g>
        </g>
    </g>
</svg>